<mxfile host="Electron" agent="Mozilla/5.0 (Macintosh; Intel Mac OS X 10_15_7) AppleWebKit/537.36 (KHTML, like Gecko) draw.io/28.1.2 Chrome/138.0.7204.243 Electron/37.4.0 Safari/537.36" version="28.1.2">
  <diagram name="Page-1" id="WvHU0HtMwd8KkiSbCxh8">
    <mxGraphModel dx="946" dy="624" grid="1" gridSize="10" guides="1" tooltips="1" connect="1" arrows="1" fold="1" page="1" pageScale="1" pageWidth="827" pageHeight="1169" math="0" shadow="0">
      <root>
        <mxCell id="0" />
        <mxCell id="1" parent="0" />
        <mxCell id="yofmtGvoozSvmIRT_THw-1" value="&lt;div style=&quot;forced-color-adjust: none; box-shadow: none !important;&quot;&gt;&lt;br style=&quot;forced-color-adjust: none; box-shadow: none !important; color: rgb(255, 255, 255); font-family: Helvetica; font-size: 12px; font-style: normal; font-variant-ligatures: normal; font-variant-caps: normal; font-weight: 400; letter-spacing: normal; orphans: 2; text-align: center; text-indent: 0px; text-transform: none; widows: 2; word-spacing: 0px; -webkit-text-stroke-width: 0px; white-space: normal; background-color: rgb(27, 29, 30); text-decoration-thickness: initial; text-decoration-style: initial; text-decoration-color: initial;&quot;&gt;&lt;/div&gt;" style="rounded=0;whiteSpace=wrap;html=1;rotation=90;" parent="1" vertex="1">
          <mxGeometry x="-60" y="260" width="440" height="160" as="geometry" />
        </mxCell>
        <mxCell id="yofmtGvoozSvmIRT_THw-27" style="edgeStyle=orthogonalEdgeStyle;rounded=0;orthogonalLoop=1;jettySize=auto;html=1;" parent="1" source="yofmtGvoozSvmIRT_THw-2" target="yofmtGvoozSvmIRT_THw-16" edge="1">
          <mxGeometry relative="1" as="geometry" />
        </mxCell>
        <mxCell id="yofmtGvoozSvmIRT_THw-28" style="edgeStyle=orthogonalEdgeStyle;rounded=0;orthogonalLoop=1;jettySize=auto;html=1;entryX=0;entryY=0.5;entryDx=0;entryDy=0;" parent="1" source="yofmtGvoozSvmIRT_THw-2" target="yofmtGvoozSvmIRT_THw-19" edge="1">
          <mxGeometry relative="1" as="geometry" />
        </mxCell>
        <mxCell id="yofmtGvoozSvmIRT_THw-29" style="edgeStyle=orthogonalEdgeStyle;rounded=0;orthogonalLoop=1;jettySize=auto;html=1;" parent="1" source="yofmtGvoozSvmIRT_THw-2" target="yofmtGvoozSvmIRT_THw-18" edge="1">
          <mxGeometry relative="1" as="geometry" />
        </mxCell>
        <mxCell id="yofmtGvoozSvmIRT_THw-2" value="" style="image;aspect=fixed;html=1;points=[];align=center;fontSize=12;image=img/lib/azure2/general/Folder_Blank.svg;" parent="1" vertex="1">
          <mxGeometry x="127.23" y="240" width="66.54" height="54" as="geometry" />
        </mxCell>
        <mxCell id="yofmtGvoozSvmIRT_THw-31" style="edgeStyle=orthogonalEdgeStyle;rounded=0;orthogonalLoop=1;jettySize=auto;html=1;entryX=0;entryY=0.25;entryDx=0;entryDy=0;" parent="1" source="yofmtGvoozSvmIRT_THw-3" target="yofmtGvoozSvmIRT_THw-21" edge="1">
          <mxGeometry relative="1" as="geometry" />
        </mxCell>
        <mxCell id="yofmtGvoozSvmIRT_THw-32" style="edgeStyle=orthogonalEdgeStyle;rounded=0;orthogonalLoop=1;jettySize=auto;html=1;entryX=0;entryY=0.75;entryDx=0;entryDy=0;" parent="1" source="yofmtGvoozSvmIRT_THw-3" target="yofmtGvoozSvmIRT_THw-22" edge="1">
          <mxGeometry relative="1" as="geometry" />
        </mxCell>
        <mxCell id="yofmtGvoozSvmIRT_THw-33" style="edgeStyle=orthogonalEdgeStyle;rounded=0;orthogonalLoop=1;jettySize=auto;html=1;" parent="1" source="yofmtGvoozSvmIRT_THw-3" target="yofmtGvoozSvmIRT_THw-23" edge="1">
          <mxGeometry relative="1" as="geometry" />
        </mxCell>
        <mxCell id="yofmtGvoozSvmIRT_THw-3" value="" style="image;aspect=fixed;html=1;points=[];align=center;fontSize=12;image=img/lib/azure2/general/Folder_Blank.svg;" parent="1" vertex="1">
          <mxGeometry x="127.23" y="419" width="69" height="56.00000000000001" as="geometry" />
        </mxCell>
        <mxCell id="yofmtGvoozSvmIRT_THw-4" value="&lt;b&gt;CRM&lt;/b&gt;&lt;div&gt;&lt;br&gt;&lt;/div&gt;" style="text;html=1;align=center;verticalAlign=middle;whiteSpace=wrap;rounded=0;" parent="1" vertex="1">
          <mxGeometry x="130" y="294" width="60" height="30" as="geometry" />
        </mxCell>
        <mxCell id="yofmtGvoozSvmIRT_THw-6" value="&lt;b&gt;ERP&lt;/b&gt;&lt;div&gt;&lt;br&gt;&lt;/div&gt;" style="text;html=1;align=center;verticalAlign=middle;whiteSpace=wrap;rounded=0;" parent="1" vertex="1">
          <mxGeometry x="130" y="475" width="60" height="30" as="geometry" />
        </mxCell>
        <mxCell id="yofmtGvoozSvmIRT_THw-7" value="&lt;b&gt;&lt;font style=&quot;font-size: 14px;&quot;&gt;SOURCES&lt;/font&gt;&lt;/b&gt;" style="rounded=1;whiteSpace=wrap;html=1;strokeColor=none;" parent="1" vertex="1">
          <mxGeometry x="102" y="80" width="120" height="60" as="geometry" />
        </mxCell>
        <mxCell id="yofmtGvoozSvmIRT_THw-8" value="&lt;div style=&quot;forced-color-adjust: none; box-shadow: none !important;&quot;&gt;&lt;br style=&quot;forced-color-adjust: none; box-shadow: none !important; color: rgb(255, 255, 255); font-family: Helvetica; font-size: 12px; font-style: normal; font-variant-ligatures: normal; font-variant-caps: normal; font-weight: 400; letter-spacing: normal; orphans: 2; text-align: center; text-indent: 0px; text-transform: none; widows: 2; word-spacing: 0px; -webkit-text-stroke-width: 0px; white-space: normal; background-color: rgb(27, 29, 30); text-decoration-thickness: initial; text-decoration-style: initial; text-decoration-color: initial;&quot;&gt;&lt;/div&gt;" style="rounded=0;whiteSpace=wrap;html=1;rotation=90;" parent="1" vertex="1">
          <mxGeometry x="205.63" y="285.63" width="388.75" height="160" as="geometry" />
        </mxCell>
        <mxCell id="yofmtGvoozSvmIRT_THw-11" value="&lt;div&gt;&lt;br&gt;&lt;/div&gt;" style="text;html=1;align=center;verticalAlign=middle;whiteSpace=wrap;rounded=0;" parent="1" vertex="1">
          <mxGeometry x="370" y="296" width="60" height="30" as="geometry" />
        </mxCell>
        <mxCell id="yofmtGvoozSvmIRT_THw-12" value="&lt;div&gt;&lt;br&gt;&lt;/div&gt;" style="text;html=1;align=center;verticalAlign=middle;whiteSpace=wrap;rounded=0;" parent="1" vertex="1">
          <mxGeometry x="370" y="486" width="60" height="30" as="geometry" />
        </mxCell>
        <mxCell id="yofmtGvoozSvmIRT_THw-13" value="&lt;b&gt;&lt;font style=&quot;font-size: 14px;&quot;&gt;Bronze Layer&lt;/font&gt;&lt;/b&gt;" style="rounded=0;whiteSpace=wrap;html=1;fillColor=#f0a30a;fontColor=#000000;strokeColor=#BD7000;" parent="1" vertex="1">
          <mxGeometry x="320" y="120" width="160" height="40" as="geometry" />
        </mxCell>
        <mxCell id="yofmtGvoozSvmIRT_THw-15" style="edgeStyle=orthogonalEdgeStyle;rounded=0;orthogonalLoop=1;jettySize=auto;html=1;exitX=0.5;exitY=1;exitDx=0;exitDy=0;" parent="1" source="yofmtGvoozSvmIRT_THw-13" target="yofmtGvoozSvmIRT_THw-13" edge="1">
          <mxGeometry relative="1" as="geometry" />
        </mxCell>
        <mxCell id="yofmtGvoozSvmIRT_THw-16" value="&lt;span style=&quot;font-size: 14px;&quot;&gt;&lt;b&gt;crm_sales_details&lt;/b&gt;&lt;/span&gt;" style="rounded=0;whiteSpace=wrap;html=1;fillColor=#f0a30a;fontColor=#000000;strokeColor=#BD7000;" parent="1" vertex="1">
          <mxGeometry x="330" y="210" width="140" height="30" as="geometry" />
        </mxCell>
        <mxCell id="yofmtGvoozSvmIRT_THw-19" value="&lt;span style=&quot;font-size: 14px;&quot;&gt;&lt;b&gt;crm_prd_Info&lt;/b&gt;&lt;/span&gt;" style="rounded=0;whiteSpace=wrap;html=1;fillColor=#f0a30a;fontColor=#000000;strokeColor=#BD7000;" parent="1" vertex="1">
          <mxGeometry x="330" y="294" width="140" height="30" as="geometry" />
        </mxCell>
        <mxCell id="yofmtGvoozSvmIRT_THw-18" value="&lt;span style=&quot;font-size: 14px;&quot;&gt;&lt;b&gt;crm_cust_info&lt;/b&gt;&lt;/span&gt;" style="rounded=0;whiteSpace=wrap;html=1;fillColor=#f0a30a;fontColor=#000000;strokeColor=#BD7000;" parent="1" vertex="1">
          <mxGeometry x="330" y="252" width="140" height="30" as="geometry" />
        </mxCell>
        <mxCell id="yofmtGvoozSvmIRT_THw-21" value="&lt;b&gt;&lt;font style=&quot;font-size: 14px;&quot;&gt;erp_cust_az12&lt;/font&gt;&lt;/b&gt;" style="rounded=0;whiteSpace=wrap;html=1;fillColor=#f0a30a;fontColor=#000000;strokeColor=#BD7000;" parent="1" vertex="1">
          <mxGeometry x="330" y="390" width="140" height="30" as="geometry" />
        </mxCell>
        <mxCell id="yofmtGvoozSvmIRT_THw-22" value="&lt;span style=&quot;font-size: 14px;&quot;&gt;&lt;b&gt;erp_px_cat_g1v2&lt;/b&gt;&lt;/span&gt;" style="rounded=0;whiteSpace=wrap;html=1;fillColor=#f0a30a;fontColor=#000000;strokeColor=#BD7000;" parent="1" vertex="1">
          <mxGeometry x="330" y="474" width="140" height="30" as="geometry" />
        </mxCell>
        <mxCell id="yofmtGvoozSvmIRT_THw-23" value="&lt;span style=&quot;font-size: 14px;&quot;&gt;&lt;b&gt;erp_loc_a101&lt;/b&gt;&lt;/span&gt;" style="rounded=0;whiteSpace=wrap;html=1;fillColor=#f0a30a;fontColor=#000000;strokeColor=#BD7000;" parent="1" vertex="1">
          <mxGeometry x="330" y="432" width="140" height="30" as="geometry" />
        </mxCell>
        <mxCell id="yofmtGvoozSvmIRT_THw-34" value="&lt;b&gt;&lt;font style=&quot;font-size: 16px;&quot;&gt;DATA FLOW&lt;/font&gt;&lt;/b&gt;" style="text;html=1;align=center;verticalAlign=middle;whiteSpace=wrap;rounded=0;" parent="1" vertex="1">
          <mxGeometry x="85" y="30" width="150" height="30" as="geometry" />
        </mxCell>
        <mxCell id="6-wO1KBHWSJtyz0-Zc8b-1" value="&lt;div style=&quot;forced-color-adjust: none; box-shadow: none !important;&quot;&gt;&lt;br style=&quot;forced-color-adjust: none; box-shadow: none !important; color: rgb(255, 255, 255); font-family: Helvetica; font-size: 12px; font-style: normal; font-variant-ligatures: normal; font-variant-caps: normal; font-weight: 400; letter-spacing: normal; orphans: 2; text-align: center; text-indent: 0px; text-transform: none; widows: 2; word-spacing: 0px; -webkit-text-stroke-width: 0px; white-space: normal; background-color: rgb(27, 29, 30); text-decoration-thickness: initial; text-decoration-style: initial; text-decoration-color: initial;&quot;&gt;&lt;/div&gt;" style="rounded=0;whiteSpace=wrap;html=1;rotation=90;" parent="1" vertex="1">
          <mxGeometry x="430" y="285.63" width="388.75" height="160" as="geometry" />
        </mxCell>
        <mxCell id="6-wO1KBHWSJtyz0-Zc8b-2" value="&lt;div&gt;&lt;br&gt;&lt;/div&gt;" style="text;html=1;align=center;verticalAlign=middle;whiteSpace=wrap;rounded=0;" parent="1" vertex="1">
          <mxGeometry x="594.37" y="296" width="60" height="30" as="geometry" />
        </mxCell>
        <mxCell id="6-wO1KBHWSJtyz0-Zc8b-3" value="&lt;div&gt;&lt;br&gt;&lt;/div&gt;" style="text;html=1;align=center;verticalAlign=middle;whiteSpace=wrap;rounded=0;" parent="1" vertex="1">
          <mxGeometry x="594.37" y="486" width="60" height="30" as="geometry" />
        </mxCell>
        <mxCell id="6-wO1KBHWSJtyz0-Zc8b-4" value="&lt;span style=&quot;font-size: 14px;&quot;&gt;&lt;b&gt;Silver Layer&lt;/b&gt;&lt;/span&gt;" style="rounded=0;whiteSpace=wrap;html=1;fillColor=#647687;fontColor=#ffffff;strokeColor=#314354;" parent="1" vertex="1">
          <mxGeometry x="544.37" y="120" width="160" height="40" as="geometry" />
        </mxCell>
        <mxCell id="6-wO1KBHWSJtyz0-Zc8b-5" style="edgeStyle=orthogonalEdgeStyle;rounded=0;orthogonalLoop=1;jettySize=auto;html=1;exitX=0.5;exitY=1;exitDx=0;exitDy=0;" parent="1" source="6-wO1KBHWSJtyz0-Zc8b-4" target="6-wO1KBHWSJtyz0-Zc8b-4" edge="1">
          <mxGeometry relative="1" as="geometry" />
        </mxCell>
        <mxCell id="6-wO1KBHWSJtyz0-Zc8b-6" value="&lt;span style=&quot;font-size: 14px;&quot;&gt;&lt;b&gt;crm_sales_details&lt;/b&gt;&lt;/span&gt;" style="rounded=0;whiteSpace=wrap;html=1;fillColor=#647687;fontColor=#ffffff;strokeColor=#314354;" parent="1" vertex="1">
          <mxGeometry x="554.37" y="210" width="140" height="30" as="geometry" />
        </mxCell>
        <mxCell id="6-wO1KBHWSJtyz0-Zc8b-7" value="&lt;span style=&quot;font-size: 14px;&quot;&gt;&lt;b&gt;crm_prd_Info&lt;/b&gt;&lt;/span&gt;" style="rounded=0;whiteSpace=wrap;html=1;fillColor=#647687;fontColor=#ffffff;strokeColor=#314354;" parent="1" vertex="1">
          <mxGeometry x="554.37" y="294" width="140" height="30" as="geometry" />
        </mxCell>
        <mxCell id="6-wO1KBHWSJtyz0-Zc8b-8" value="&lt;span style=&quot;font-size: 14px;&quot;&gt;&lt;b&gt;crm_cust_info&lt;/b&gt;&lt;/span&gt;" style="rounded=0;whiteSpace=wrap;html=1;fillColor=#647687;fontColor=#ffffff;strokeColor=#314354;" parent="1" vertex="1">
          <mxGeometry x="554.37" y="252" width="140" height="30" as="geometry" />
        </mxCell>
        <mxCell id="6-wO1KBHWSJtyz0-Zc8b-9" value="&lt;b&gt;&lt;font style=&quot;font-size: 14px;&quot;&gt;erp_cust_az12&lt;/font&gt;&lt;/b&gt;" style="rounded=0;whiteSpace=wrap;html=1;fillColor=#647687;fontColor=#ffffff;strokeColor=#314354;" parent="1" vertex="1">
          <mxGeometry x="554.37" y="390" width="140" height="30" as="geometry" />
        </mxCell>
        <mxCell id="6-wO1KBHWSJtyz0-Zc8b-10" value="&lt;span style=&quot;font-size: 14px;&quot;&gt;&lt;b&gt;erp_px_cat_g1v2&lt;/b&gt;&lt;/span&gt;" style="rounded=0;whiteSpace=wrap;html=1;fillColor=#647687;fontColor=#ffffff;strokeColor=#314354;" parent="1" vertex="1">
          <mxGeometry x="554.37" y="474" width="140" height="30" as="geometry" />
        </mxCell>
        <mxCell id="6-wO1KBHWSJtyz0-Zc8b-11" value="&lt;span style=&quot;font-size: 14px;&quot;&gt;&lt;b&gt;erp_loc_a101&lt;/b&gt;&lt;/span&gt;" style="rounded=0;whiteSpace=wrap;html=1;fillColor=#647687;fontColor=#ffffff;strokeColor=#314354;" parent="1" vertex="1">
          <mxGeometry x="554.37" y="432" width="140" height="30" as="geometry" />
        </mxCell>
        <mxCell id="6-wO1KBHWSJtyz0-Zc8b-19" style="edgeStyle=orthogonalEdgeStyle;rounded=0;orthogonalLoop=1;jettySize=auto;html=1;entryX=0.112;entryY=0.5;entryDx=0;entryDy=0;entryPerimeter=0;" parent="1" source="yofmtGvoozSvmIRT_THw-16" target="6-wO1KBHWSJtyz0-Zc8b-6" edge="1">
          <mxGeometry relative="1" as="geometry" />
        </mxCell>
        <mxCell id="6-wO1KBHWSJtyz0-Zc8b-20" style="edgeStyle=orthogonalEdgeStyle;rounded=0;orthogonalLoop=1;jettySize=auto;html=1;entryX=0.112;entryY=0.5;entryDx=0;entryDy=0;entryPerimeter=0;" parent="1" source="yofmtGvoozSvmIRT_THw-18" target="6-wO1KBHWSJtyz0-Zc8b-8" edge="1">
          <mxGeometry relative="1" as="geometry" />
        </mxCell>
        <mxCell id="6-wO1KBHWSJtyz0-Zc8b-21" style="edgeStyle=orthogonalEdgeStyle;rounded=0;orthogonalLoop=1;jettySize=auto;html=1;entryX=0.112;entryY=0.5;entryDx=0;entryDy=0;entryPerimeter=0;" parent="1" source="yofmtGvoozSvmIRT_THw-19" target="6-wO1KBHWSJtyz0-Zc8b-7" edge="1">
          <mxGeometry relative="1" as="geometry" />
        </mxCell>
        <mxCell id="6-wO1KBHWSJtyz0-Zc8b-24" style="edgeStyle=orthogonalEdgeStyle;rounded=0;orthogonalLoop=1;jettySize=auto;html=1;entryX=0.112;entryY=0.5;entryDx=0;entryDy=0;entryPerimeter=0;" parent="1" source="yofmtGvoozSvmIRT_THw-21" target="6-wO1KBHWSJtyz0-Zc8b-9" edge="1">
          <mxGeometry relative="1" as="geometry" />
        </mxCell>
        <mxCell id="6-wO1KBHWSJtyz0-Zc8b-25" style="edgeStyle=orthogonalEdgeStyle;rounded=0;orthogonalLoop=1;jettySize=auto;html=1;entryX=0.112;entryY=0.5;entryDx=0;entryDy=0;entryPerimeter=0;" parent="1" source="yofmtGvoozSvmIRT_THw-23" target="6-wO1KBHWSJtyz0-Zc8b-11" edge="1">
          <mxGeometry relative="1" as="geometry" />
        </mxCell>
        <mxCell id="6-wO1KBHWSJtyz0-Zc8b-26" style="edgeStyle=orthogonalEdgeStyle;rounded=0;orthogonalLoop=1;jettySize=auto;html=1;entryX=0.112;entryY=0.5;entryDx=0;entryDy=0;entryPerimeter=0;" parent="1" source="yofmtGvoozSvmIRT_THw-22" target="6-wO1KBHWSJtyz0-Zc8b-10" edge="1">
          <mxGeometry relative="1" as="geometry" />
        </mxCell>
        <mxCell id="Kv-Tvjtg0hW482QpRLem-2" value="&lt;div style=&quot;forced-color-adjust: none; box-shadow: none !important;&quot;&gt;&lt;br style=&quot;forced-color-adjust: none; box-shadow: none !important; color: rgb(255, 255, 255); font-family: Helvetica; font-size: 12px; font-style: normal; font-variant-ligatures: normal; font-variant-caps: normal; font-weight: 400; letter-spacing: normal; orphans: 2; text-align: center; text-indent: 0px; text-transform: none; widows: 2; word-spacing: 0px; -webkit-text-stroke-width: 0px; white-space: normal; background-color: rgb(27, 29, 30); text-decoration-thickness: initial; text-decoration-style: initial; text-decoration-color: initial;&quot;&gt;&lt;/div&gt;" style="rounded=0;whiteSpace=wrap;html=1;rotation=90;" vertex="1" parent="1">
          <mxGeometry x="730" y="283.63" width="388.75" height="160" as="geometry" />
        </mxCell>
        <mxCell id="Kv-Tvjtg0hW482QpRLem-3" value="&lt;span style=&quot;font-size: 14px;&quot;&gt;&lt;b&gt;Gold Layer&lt;/b&gt;&lt;/span&gt;" style="rounded=0;whiteSpace=wrap;html=1;fillColor=#e3c800;fontColor=#000000;strokeColor=#B09500;" vertex="1" parent="1">
          <mxGeometry x="844.37" y="120" width="160" height="40" as="geometry" />
        </mxCell>
        <mxCell id="Kv-Tvjtg0hW482QpRLem-4" value="&lt;span style=&quot;font-size: 14px;&quot;&gt;&lt;b&gt;fact_sales&lt;/b&gt;&lt;/span&gt;" style="rounded=0;whiteSpace=wrap;html=1;fillColor=#e3c800;fontColor=#000000;strokeColor=#B09500;" vertex="1" parent="1">
          <mxGeometry x="854.38" y="210" width="140" height="30" as="geometry" />
        </mxCell>
        <mxCell id="Kv-Tvjtg0hW482QpRLem-5" value="&lt;span style=&quot;font-size: 14px;&quot;&gt;&lt;b&gt;dim_products&lt;/b&gt;&lt;/span&gt;" style="rounded=0;whiteSpace=wrap;html=1;fillColor=#e3c800;fontColor=#000000;strokeColor=#B09500;" vertex="1" parent="1">
          <mxGeometry x="854.38" y="380" width="140" height="30" as="geometry" />
        </mxCell>
        <mxCell id="Kv-Tvjtg0hW482QpRLem-6" value="&lt;span style=&quot;font-size: 14px;&quot;&gt;&lt;b&gt;dim_customers&lt;/b&gt;&lt;/span&gt;" style="rounded=0;whiteSpace=wrap;html=1;fillColor=#e3c800;fontColor=#000000;strokeColor=#B09500;" vertex="1" parent="1">
          <mxGeometry x="854.38" y="337" width="140" height="30" as="geometry" />
        </mxCell>
        <mxCell id="Kv-Tvjtg0hW482QpRLem-30" style="edgeStyle=orthogonalEdgeStyle;rounded=0;orthogonalLoop=1;jettySize=auto;html=1;" edge="1" parent="1" source="6-wO1KBHWSJtyz0-Zc8b-6">
          <mxGeometry relative="1" as="geometry">
            <mxPoint x="860" y="225" as="targetPoint" />
          </mxGeometry>
        </mxCell>
        <mxCell id="Kv-Tvjtg0hW482QpRLem-32" style="edgeStyle=orthogonalEdgeStyle;rounded=0;orthogonalLoop=1;jettySize=auto;html=1;" edge="1" parent="1" source="6-wO1KBHWSJtyz0-Zc8b-8">
          <mxGeometry relative="1" as="geometry">
            <mxPoint x="910" y="340" as="targetPoint" />
          </mxGeometry>
        </mxCell>
        <mxCell id="Kv-Tvjtg0hW482QpRLem-34" style="edgeStyle=orthogonalEdgeStyle;rounded=0;orthogonalLoop=1;jettySize=auto;html=1;entryX=0.083;entryY=0.933;entryDx=0;entryDy=0;entryPerimeter=0;" edge="1" parent="1" source="6-wO1KBHWSJtyz0-Zc8b-11" target="Kv-Tvjtg0hW482QpRLem-6">
          <mxGeometry relative="1" as="geometry" />
        </mxCell>
        <mxCell id="Kv-Tvjtg0hW482QpRLem-36" style="edgeStyle=orthogonalEdgeStyle;rounded=0;orthogonalLoop=1;jettySize=auto;html=1;entryX=0.112;entryY=0.767;entryDx=0;entryDy=0;entryPerimeter=0;" edge="1" parent="1" source="6-wO1KBHWSJtyz0-Zc8b-9" target="Kv-Tvjtg0hW482QpRLem-6">
          <mxGeometry relative="1" as="geometry" />
        </mxCell>
        <mxCell id="Kv-Tvjtg0hW482QpRLem-37" style="edgeStyle=orthogonalEdgeStyle;rounded=0;orthogonalLoop=1;jettySize=auto;html=1;entryX=0.826;entryY=0.667;entryDx=0;entryDy=0;entryPerimeter=0;" edge="1" parent="1" source="6-wO1KBHWSJtyz0-Zc8b-10" target="Kv-Tvjtg0hW482QpRLem-5">
          <mxGeometry relative="1" as="geometry" />
        </mxCell>
        <mxCell id="Kv-Tvjtg0hW482QpRLem-38" style="edgeStyle=orthogonalEdgeStyle;rounded=0;orthogonalLoop=1;jettySize=auto;html=1;entryX=0.826;entryY=0.333;entryDx=0;entryDy=0;entryPerimeter=0;" edge="1" parent="1" source="6-wO1KBHWSJtyz0-Zc8b-7" target="Kv-Tvjtg0hW482QpRLem-5">
          <mxGeometry relative="1" as="geometry" />
        </mxCell>
      </root>
    </mxGraphModel>
  </diagram>
</mxfile>
